<svg width="151" height="150" viewBox="0 0 151 150" fill="none" xmlns="http://www.w3.org/2000/svg">
<path d="M87.5681 74.887C87.5681 68.1632 81.9463 62.7117 75.0107 62.7117C68.076 62.7117 62.4534 68.1632 62.4534 74.887C62.4534 81.6117 68.076 87.0628 75.0107 87.0628C81.9463 87.0628 87.5681 81.6117 87.5681 74.887Z" fill="#717292"/>
<path fill-rule="evenodd" clip-rule="evenodd" d="M115.794 52.283C118.446 41.8349 121.779 22.4601 110.028 15.8914C98.3325 9.35132 83.1126 21.8833 75.0759 29.4055C67.0626 21.9582 51.4153 9.47985 39.6746 16.0694C27.9834 22.6314 31.5887 41.685 34.2993 52.1986C23.3934 55.2019 4.69824 61.6706 4.69824 74.887C4.69824 88.0659 23.374 95.1037 34.2153 98.1042C31.4947 108.676 28.0699 127.457 39.7761 134.005C51.5606 140.593 67.1592 128.412 75.2704 120.807C83.3587 128.374 98.4323 140.635 110.13 134.069C121.865 127.483 118.809 108.367 116.098 97.793C126.607 94.7859 145.323 87.9014 145.323 74.887C145.323 61.7977 126.528 55.2764 115.794 52.283ZM114.462 92.1891C112.682 86.7262 110.279 80.917 107.341 74.9161C110.146 69.0567 112.455 63.3225 114.185 57.8948C122.054 60.1069 139.316 65.1623 139.316 74.887C139.316 84.7031 122.751 89.8064 114.462 92.1891ZM107.12 129.028C98.392 133.927 85.4268 122.201 79.4536 116.629C83.4164 112.427 87.3764 107.542 91.2412 102.117C98.04 101.532 104.462 100.576 110.287 99.2705C112.195 106.75 115.887 124.108 107.12 129.028ZM42.7777 128.958C34.0487 124.078 38.0385 107.318 40.04 99.5311C45.7998 100.767 52.1761 101.655 58.9907 102.191C62.8809 107.499 66.9557 112.379 71.062 116.652C65.9887 121.41 51.5475 133.861 42.7777 128.958ZM10.7052 74.887C10.7052 65.0344 27.8642 60.0155 35.9125 57.8091C37.6725 63.3586 39.9808 69.1612 42.7665 75.0291C39.9447 80.9841 37.6034 86.8786 35.8272 92.4937C28.153 90.3637 10.7052 84.7458 10.7052 74.887ZM42.6843 21.1103C51.449 16.1914 65.0484 28.1711 70.8665 33.5631C66.7814 37.8166 62.744 42.6591 58.8871 47.9367C52.2736 48.5311 45.9424 49.4855 40.1221 50.7642C37.9385 42.2846 33.9291 26.024 42.6843 21.1103ZM95.5387 54.2677C100.026 54.8166 104.324 55.5469 108.361 56.4403C107.149 60.2062 105.639 64.1442 103.86 68.1811C101.281 63.4373 98.5134 58.7887 95.5387 54.2677ZM75.0778 37.7255C77.8486 40.6358 80.6236 43.8858 83.3536 47.4117C77.8162 47.1576 72.27 47.1567 66.7326 47.408C69.465 43.9147 72.2639 40.6696 75.0778 37.7255ZM46.2131 68.1769C44.4637 64.1541 42.9669 60.1987 41.7446 56.3789C45.7569 55.5084 50.0357 54.7969 54.4936 54.2569C51.5104 58.7681 48.7471 63.4148 46.2131 68.1769ZM54.6215 95.933C50.0165 95.4347 45.6729 94.7592 41.6618 93.9126C42.9034 90.0258 44.4331 85.9852 46.2199 81.8756C48.7889 86.6873 51.5943 91.3791 54.6215 95.933ZM75.2442 112.46C72.397 109.481 69.5568 106.186 66.7832 102.643C72.352 102.855 77.9315 102.855 83.4998 102.614C80.7614 106.222 77.9962 109.522 75.2442 112.46ZM103.917 81.6666C105.797 85.8206 107.381 89.8392 108.64 93.6605C104.562 94.5628 100.16 95.2894 95.5218 95.8289C98.5186 91.222 101.331 86.5012 103.917 81.6666ZM87.8887 96.5348C79.3706 97.125 70.7995 97.1184 62.2786 96.5831C57.4368 89.7258 53.1267 82.5141 49.4062 75.0272C53.1089 67.5558 57.3876 60.3581 62.2064 53.5116C70.7334 52.8867 79.3129 52.8848 87.84 53.5153C92.6175 60.3614 96.8897 67.5403 100.678 74.9442C96.9347 82.4119 92.6334 89.6241 87.8887 96.5348ZM107.028 20.9372C115.795 25.84 111.892 43.2528 109.977 50.8247C104.143 49.5192 97.8075 48.548 91.1746 47.9442C87.3103 42.6096 83.3067 37.7587 79.2876 33.5601C85.1803 28.0519 98.3456 16.0823 107.028 20.9372Z" fill="#717292"/>
</svg>
