<svg width="150" height="151" viewBox="0 0 150 151" fill="none" xmlns="http://www.w3.org/2000/svg">
<g clip-path="url(#clip0_30_91)">
<path d="M66.096 150.138C52.0552 149.126 38.1777 145.592 29.6668 140.861C24.8189 138.166 21.1256 134.854 19.6763 131.902L18.814 130.146V75.0571V19.9684L19.4963 18.583C22.5455 12.3922 32.277 6.81127 45.8615 3.46263C50.4728 2.32584 57.1299 1.19378 62.5609 0.622923C68.1065 0.0398519 82.8058 0.128562 88.3377 0.779348C103.04 2.50671 115.551 6.37383 123.261 11.5743C126.235 13.5798 129.286 16.7888 130.319 18.9977L131.206 20.8915L131.13 75.8136L131.054 130.736L130.342 132.181C129.951 132.976 128.769 134.54 127.716 135.656C121.305 142.452 107.554 147.479 89.5162 149.621C85.8398 150.058 69.8679 150.41 66.096 150.138ZM91.971 102.935C91.917 102.794 89.8181 100.924 87.3067 98.7794C84.7953 96.6346 82.6322 94.7789 82.5 94.6557C82.3678 94.5325 82.8318 94.0964 83.5312 93.6864C84.2305 93.2765 85.5703 92.136 86.5086 91.1521C89.2525 88.2748 90.5471 84.7207 90.5471 80.0652C90.5471 75.4821 89.1509 71.7842 86.3543 68.9614C83.5357 66.1161 80.2994 64.8936 75.5866 64.8936C68.3222 64.8936 62.7431 69.1324 60.9624 76.0046C60.3498 78.3684 60.3531 83.1447 60.9688 85.2407C62.5746 90.7079 66.9483 94.6786 72.3915 95.611C74.2335 95.9265 74.483 96.0625 75.7388 97.4355C76.4852 98.2515 78.0167 99.8801 79.1423 101.055L81.1887 103.191H86.629C89.6212 103.191 92.025 103.076 91.971 102.935ZM73.3141 87.7024C72.0044 87.0195 71.5093 86.4895 70.7624 84.9712C70.1856 83.7986 70.087 83.1316 70.0805 80.3599C70.0741 77.5435 70.1637 76.9349 70.766 75.712C71.7514 73.7108 73.1093 72.7634 75.2099 72.6115C78.1339 72.3994 79.8218 73.8345 80.7064 77.2832C81.7909 81.5115 80.5982 86.0069 77.9961 87.4988C76.631 88.2815 74.5947 88.3701 73.3141 87.7024ZM49.2003 95.5509C54.9042 94.4692 58.142 91.1522 58.142 86.3904C58.142 82.1661 56.0516 79.7046 50.2742 77.1254C46.967 75.649 45.7691 74.7223 45.7691 73.6395C45.7691 72.7421 46.9059 71.7586 48.2293 71.5116C49.5215 71.2703 52.9487 71.8655 54.9726 72.683L56.6691 73.3684V69.6133V65.8579L54.8278 65.4495C53.6899 65.197 51.2987 65.0456 48.5677 65.0533C44.6992 65.0533 43.9418 65.1475 42.486 65.7257C38.2336 67.4138 36.2157 70.2895 36.248 74.6153C36.2782 78.6649 38.4145 81.1909 43.7314 83.4634C46.8685 84.8042 48.1259 85.8252 48.1259 87.0317C48.1259 89.5956 43.8538 89.9112 39.3308 87.6813C38.0921 87.0707 36.9792 86.5213 36.8577 86.4604C36.7362 86.3996 36.6368 88.1537 36.6368 90.3586C36.6368 94.3494 36.641 94.3687 37.3636 94.6438C40.0846 95.6783 46.0985 96.1392 49.2003 95.5509ZM114.409 91.8488V88.4611H109.254H104.098V76.8246V65.1883H99.5322H94.9661V80.2125V95.2367H104.688H114.409V91.8488ZM82.5931 32.4809C91.667 31.8516 98.4687 30.6633 104.454 28.6621C110.417 26.6684 113.939 24.256 114.727 21.6263C115.031 20.6129 115.009 20.2286 114.585 19.1175C112.682 14.1364 102.056 10.3094 85.8171 8.75778C78.8709 8.09392 66.2384 8.30913 59.6154 9.20377C49.5096 10.5692 41.3082 13.1054 37.6615 15.9929C30.2847 21.8344 38.0857 28.2592 56.2273 31.2832C64.0933 32.5944 74.2844 33.0574 82.5931 32.4809Z" fill="#737495"/>
</g>
<defs>
<clipPath id="clip0_30_91">
<rect width="150" height="150" fill="white" transform="translate(0 0.234375)"/>
</clipPath>
</defs>
</svg>
