<svg width="150" height="150" viewBox="0 0 150 150" fill="none" xmlns="http://www.w3.org/2000/svg">
<g clip-path="url(#clip0_92_20)">
<path d="M67.1029 70.2485V56.3118H82.6897V70.2485H67.1029ZM82.6897 22.0588V36.4721H67.1029V22.0588H82.6897ZM101.118 56.3382V70.275H85.5309V56.3382H101.118ZM64.2662 39.3309V53.5059H48.6794V39.3309H64.2662ZM82.6941 39.3309V53.5059H67.1029V39.3309H82.6941ZM148.138 62.925L151.209 65.0515L149.082 69.0838C146.859 73.4868 143.007 76.8 138.344 78.2647L138.216 78.3C135.296 79.2044 131.938 79.7294 128.462 79.7294C128.153 79.7294 127.849 79.725 127.544 79.7162H127.588C121.588 94.7559 111.3 107.025 98.2412 115.328L97.9412 115.509C84.9838 123.322 69.3353 127.946 52.6059 127.946C51.7235 127.946 50.85 127.932 49.9721 127.906L50.1 127.91C32.7765 127.91 19.7044 122.713 10.8838 112.319C6.66176 107.091 3.47205 100.835 1.74264 94.0015L1.67205 93.6662C0.617643 89.8544 0.00881958 85.4735 0.00881958 80.9559C0.00881958 78.525 0.18529 76.1294 0.524996 73.7912L0.494114 74.0559H103.262C103.456 74.0603 103.685 74.0647 103.915 74.0647C107.819 74.0647 111.499 73.0985 114.728 71.3956L114.6 71.4574C112.765 68.5059 111.675 64.9235 111.675 61.0897C111.675 60.4147 111.71 59.7485 111.776 59.0912L111.768 59.175C111.984 54.6044 113.36 50.3912 115.61 46.7824L115.549 46.8927L117.913 43.5838L121.222 45.9485C126.247 49.328 129.799 54.578 130.879 60.6794L130.901 60.8162C132.622 60.5427 134.612 60.3882 136.632 60.3882C137.987 60.3882 139.324 60.4588 140.643 60.5956L140.479 60.5824C143.334 60.6883 145.972 61.553 148.213 62.9735L148.151 62.9338L148.138 62.925ZM27.4191 56.3118V70.2485H11.8279V56.3118H27.4191ZM45.8471 56.3118V70.2485H30.2647V56.3118H45.8471ZM64.275 56.3118V70.2485H48.6794V56.3118H64.275ZM45.8426 39.3044V53.4794H30.2647V39.3044H45.8426Z" fill="#717292"/>
</g>
<defs>
<clipPath id="clip0_92_20">
<rect width="150" height="150" fill="white"/>
</clipPath>
</defs>
</svg>
