<svg width="150" height="151" viewBox="0 0 150 151" fill="none" xmlns="http://www.w3.org/2000/svg">
<path d="M80.1562 75.0157C80.1562 62.9313 89.7094 53.1438 101.484 53.1438C113.269 53.1438 122.813 62.9219 122.813 75.0157C122.813 87.1001 113.269 96.8876 101.484 96.8876C89.7187 96.8876 80.1562 87.1094 80.1562 75.0157Z" fill="#1D2223"/>
<path d="M37.5 118.769C37.5 106.684 47.0531 96.8875 58.8281 96.8875H80.1563V118.769C80.1563 130.844 70.6031 140.641 58.8281 140.641C47.0531 140.641 37.5 130.844 37.5 118.769Z" fill="#202426"/>
<path d="M80.1562 9.39062V53.1437H101.484C113.269 53.1437 122.813 43.3469 122.813 31.2625C122.813 19.1875 113.269 9.39062 101.484 9.39062H80.1562Z" fill="#6F7090"/>
<path d="M37.5 31.2625C37.5 43.3469 47.0531 53.1437 58.8281 53.1437H80.1563V9.39062H58.8281C47.0531 9.39062 37.5 19.1875 37.5 31.2625Z" fill="#202426"/>
<path d="M37.5 75.0157C37.5 87.1001 47.0531 96.8876 58.8281 96.8876H80.1563V53.1438H58.8281C47.0531 53.1438 37.5 62.9219 37.5 75.0157Z" fill="#6F7090"/>
</svg>
