<svg width="150" height="151" viewBox="0 0 150 151" fill="none" xmlns="http://www.w3.org/2000/svg">
<path d="M128.125 15.8594H21.875L31.25 122.109L75 134.609L118.75 122.109L128.125 15.8594Z" fill="#202021"/>
<path d="M75 25.2344V124.922L110 114.922L117.813 25.2344H75Z" fill="#797A9E"/>
<path d="M75 78.3594V65.8594H101.875L99.6875 101.797L75 109.922V96.7969L87.8125 92.4219L88.75 78.3594H75ZM102.813 53.3594L103.75 40.8594H75V53.3594H102.813Z" fill="#E6E6E7"/>
<path d="M75 96.7969V109.922L50.3125 101.797L49.0625 84.6094H61.5625L62.1875 92.4219L75 96.7969ZM59.6875 53.3594H75V40.8594H46.5625L48.75 78.3594H75V65.8594H60.625L59.6875 53.3594Z" fill="#797A9E"/>
</svg>
