<svg width="230" height="32" viewBox="0 0 230 32" fill="none" xmlns="http://www.w3.org/2000/svg">
<path d="M7.32 12.68V24.88C7.32 25.7067 7.50667 26.3067 7.88 26.68C8.28 27.0267 8.94667 27.2 9.88 27.2H12.68V31H9.08C7.02667 31 5.45334 30.52 4.36 29.56C3.26667 28.6 2.72 27.04 2.72 24.88V12.68H0.120003V8.96H2.72V3.48H7.32V8.96H12.68V12.68H7.32Z" fill="#EFE9F4"/>
<path d="M34.8428 8.96V31H30.2828V28.4C29.5628 29.3067 28.6161 30.0267 27.4428 30.56C26.2961 31.0667 25.0695 31.32 23.7628 31.32C22.0295 31.32 20.4695 30.96 19.0828 30.24C17.7228 29.52 16.6428 28.4533 15.8428 27.04C15.0695 25.6267 14.6828 23.92 14.6828 21.92V8.96H19.2028V21.24C19.2028 23.2133 19.6961 24.7333 20.6828 25.8C21.6695 26.84 23.0161 27.36 24.7228 27.36C26.4295 27.36 27.7761 26.84 28.7628 25.8C29.7761 24.7333 30.2828 23.2133 30.2828 21.24V8.96H34.8428Z" fill="#EFE9F4"/>
<path d="M37.3394 19.96C37.3394 17.6933 37.7927 15.7067 38.6994 14C39.6327 12.2667 40.9127 10.9333 42.5394 10C44.166 9.06666 46.0327 8.6 48.1394 8.6C50.806 8.6 53.006 9.24 54.7394 10.52C56.4994 11.7733 57.686 13.5733 58.2994 15.92H53.3794C52.9794 14.8267 52.3394 13.9733 51.4594 13.36C50.5794 12.7467 49.4727 12.44 48.1394 12.44C46.2727 12.44 44.7794 13.1067 43.6594 14.44C42.566 15.7467 42.0194 17.5867 42.0194 19.96C42.0194 22.3333 42.566 24.1867 43.6594 25.52C44.7794 26.8533 46.2727 27.52 48.1394 27.52C50.7794 27.52 52.526 26.36 53.3794 24.04H58.2994C57.6594 26.28 56.4594 28.0667 54.6994 29.4C52.9394 30.7067 50.7527 31.36 48.1394 31.36C46.0327 31.36 44.166 30.8933 42.5394 29.96C40.9127 29 39.6327 27.6667 38.6994 25.96C37.7927 24.2267 37.3394 22.2267 37.3394 19.96Z" fill="#EFE9F4"/>
<path d="M72.2438 8.6C73.9238 8.6 75.4171 8.96 76.7238 9.68C78.0571 10.4 79.0971 11.4667 79.8438 12.88C80.6171 14.2933 81.0038 16 81.0038 18V31H76.4838V18.68C76.4838 16.7067 75.9904 15.2 75.0038 14.16C74.0171 13.0933 72.6704 12.56 70.9638 12.56C69.2571 12.56 67.8971 13.0933 66.8838 14.16C65.8971 15.2 65.4038 16.7067 65.4038 18.68V31H60.8438V1.4H65.4038V11.52C66.1771 10.5867 67.1504 9.86667 68.3238 9.36C69.5238 8.85333 70.8304 8.6 72.2438 8.6Z" fill="#EFE9F4"/>
<path d="M83.3003 19.88C83.3003 17.6667 83.7536 15.7067 84.6603 14C85.5936 12.2933 86.847 10.9733 88.4203 10.04C90.0203 9.08 91.7803 8.6 93.7003 8.6C95.4337 8.6 96.9403 8.94667 98.2203 9.64C99.527 10.3067 100.567 11.1467 101.34 12.16V8.96H105.94V31H101.34V27.72C100.567 28.76 99.5136 29.6267 98.1803 30.32C96.847 31.0133 95.327 31.36 93.6203 31.36C91.727 31.36 89.9937 30.88 88.4203 29.92C86.847 28.9333 85.5936 27.5733 84.6603 25.84C83.7536 24.08 83.3003 22.0933 83.3003 19.88ZM101.34 19.96C101.34 18.44 101.02 17.12 100.38 16C99.767 14.88 98.9536 14.0267 97.9403 13.44C96.927 12.8533 95.8336 12.56 94.6603 12.56C93.487 12.56 92.3937 12.8533 91.3803 13.44C90.367 14 89.5403 14.84 88.9003 15.96C88.287 17.0533 87.9803 18.36 87.9803 19.88C87.9803 21.4 88.287 22.7333 88.9003 23.88C89.5403 25.0267 90.367 25.9067 91.3803 26.52C92.4203 27.1067 93.5137 27.4 94.6603 27.4C95.8336 27.4 96.927 27.1067 97.9403 26.52C98.9536 25.9333 99.767 25.08 100.38 23.96C101.02 22.8133 101.34 21.48 101.34 19.96Z" fill="#EFE9F4"/>
<path d="M121.05 8.6C122.783 8.6 124.33 8.96 125.69 9.68C127.076 10.4 128.156 11.4667 128.93 12.88C129.703 14.2933 130.09 16 130.09 18V31H125.57V18.68C125.57 16.7067 125.076 15.2 124.09 14.16C123.103 13.0933 121.756 12.56 120.05 12.56C118.343 12.56 116.983 13.0933 115.97 14.16C114.983 15.2 114.49 16.7067 114.49 18.68V31H109.93V8.96H114.49V11.48C115.236 10.5733 116.183 9.86667 117.33 9.36C118.503 8.85333 119.743 8.6 121.05 8.6Z" fill="#EFE9F4"/>
<path d="M141.906 31.36C140.173 31.36 138.613 31.0533 137.226 30.44C135.866 29.8 134.786 28.9467 133.986 27.88C133.186 26.7867 132.76 25.5733 132.706 24.24H137.426C137.506 25.1733 137.946 25.96 138.746 26.6C139.573 27.2133 140.6 27.52 141.826 27.52C143.106 27.52 144.093 27.28 144.786 26.8C145.506 26.2933 145.866 25.6533 145.866 24.88C145.866 24.0533 145.466 23.44 144.666 23.04C143.893 22.64 142.653 22.2 140.946 21.72C139.293 21.2667 137.946 20.8267 136.906 20.4C135.866 19.9733 134.96 19.32 134.186 18.44C133.44 17.56 133.066 16.4 133.066 14.96C133.066 13.7867 133.413 12.72 134.106 11.76C134.8 10.7733 135.786 10 137.066 9.44C138.373 8.88 139.866 8.6 141.546 8.6C144.053 8.6 146.066 9.24 147.586 10.52C149.133 11.7733 149.96 13.4933 150.066 15.68H145.506C145.426 14.6933 145.026 13.9067 144.306 13.32C143.586 12.7333 142.613 12.44 141.386 12.44C140.186 12.44 139.266 12.6667 138.626 13.12C137.986 13.5733 137.666 14.1733 137.666 14.92C137.666 15.5067 137.88 16 138.306 16.4C138.733 16.8 139.253 17.12 139.866 17.36C140.48 17.5733 141.386 17.8533 142.586 18.2C144.186 18.6267 145.493 19.0667 146.506 19.52C147.546 19.9467 148.44 20.5867 149.186 21.44C149.933 22.2933 150.32 23.4267 150.346 24.84C150.346 26.0933 150 27.2133 149.306 28.2C148.613 29.1867 147.626 29.96 146.346 30.52C145.093 31.08 143.613 31.36 141.906 31.36Z" fill="#EFE9F4"/>
<path d="M161.993 20L172.153 31H165.993L157.833 21.52V31H153.273V1.4H157.833V18.6L165.833 8.96H172.153L161.993 20Z" fill="#EFE9F4"/>
<path d="M175.742 6.04C174.915 6.04 174.222 5.76 173.662 5.2C173.102 4.64 172.822 3.94666 172.822 3.12C172.822 2.29333 173.102 1.6 173.662 1.04C174.222 0.479997 174.915 0.199997 175.742 0.199997C176.542 0.199997 177.222 0.479997 177.782 1.04C178.342 1.6 178.622 2.29333 178.622 3.12C178.622 3.94666 178.342 4.64 177.782 5.2C177.222 5.76 176.542 6.04 175.742 6.04ZM177.982 8.96V31H173.422V8.96H177.982Z" fill="#EFE9F4"/>
<path d="M181.873 31.168C181.377 31.168 180.961 31 180.625 30.664C180.289 30.328 180.121 29.912 180.121 29.416C180.121 28.92 180.289 28.504 180.625 28.168C180.961 27.832 181.377 27.664 181.873 27.664C182.353 27.664 182.761 27.832 183.097 28.168C183.433 28.504 183.601 28.92 183.601 29.416C183.601 29.912 183.433 30.328 183.097 30.664C182.761 31 182.353 31.168 181.873 31.168Z" fill="#797A9E"/>
<path d="M185.646 24.328C185.646 23 185.918 21.824 186.462 20.8C187.022 19.776 187.774 18.984 188.718 18.424C189.678 17.848 190.742 17.56 191.91 17.56C192.774 17.56 193.622 17.752 194.454 18.136C195.302 18.504 195.974 19 196.47 19.624V13.24H199.23V31H196.47V29.008C196.022 29.648 195.398 30.176 194.598 30.592C193.814 31.008 192.91 31.216 191.886 31.216C190.734 31.216 189.678 30.928 188.718 30.352C187.774 29.76 187.022 28.944 186.462 27.904C185.918 26.848 185.646 25.656 185.646 24.328ZM196.47 24.376C196.47 23.464 196.278 22.672 195.894 22C195.526 21.328 195.038 20.816 194.43 20.464C193.822 20.112 193.166 19.936 192.462 19.936C191.758 19.936 191.102 20.112 190.494 20.464C189.886 20.8 189.39 21.304 189.006 21.976C188.638 22.632 188.454 23.416 188.454 24.328C188.454 25.24 188.638 26.04 189.006 26.728C189.39 27.416 189.886 27.944 190.494 28.312C191.118 28.664 191.774 28.84 192.462 28.84C193.166 28.84 193.822 28.664 194.43 28.312C195.038 27.96 195.526 27.448 195.894 26.776C196.278 26.088 196.47 25.288 196.47 24.376Z" fill="#797A9E"/>
<path d="M214.943 24.064C214.943 24.56 214.911 25.008 214.847 25.408H204.743C204.823 26.464 205.215 27.312 205.919 27.952C206.623 28.592 207.487 28.912 208.511 28.912C209.983 28.912 211.023 28.296 211.631 27.064H214.583C214.183 28.28 213.455 29.28 212.399 30.064C211.359 30.832 210.063 31.216 208.511 31.216C207.247 31.216 206.111 30.936 205.103 30.376C204.111 29.8 203.327 29 202.751 27.976C202.191 26.936 201.911 25.736 201.911 24.376C201.911 23.016 202.183 21.824 202.727 20.8C203.287 19.76 204.063 18.96 205.055 18.4C206.063 17.84 207.215 17.56 208.511 17.56C209.759 17.56 210.871 17.832 211.847 18.376C212.823 18.92 213.583 19.688 214.127 20.68C214.671 21.656 214.943 22.784 214.943 24.064ZM212.087 23.2C212.071 22.192 211.711 21.384 211.007 20.776C210.303 20.168 209.431 19.864 208.391 19.864C207.447 19.864 206.639 20.168 205.967 20.776C205.295 21.368 204.895 22.176 204.767 23.2H212.087Z" fill="#797A9E"/>
<path d="M222.748 28.552L226.492 17.776H229.396L224.356 31H221.092L216.076 17.776H219.004L222.748 28.552Z" fill="#797A9E"/>
</svg>
