<svg width="150" height="151" viewBox="0 0 150 151" fill="none" xmlns="http://www.w3.org/2000/svg">
<path d="M137.444 74.0938C137.659 60.7781 134.659 44.9438 128.409 26.3656L123.509 11.7969L116.853 25.65C116.497 26.3906 116.091 27.1156 115.666 27.8313C104.731 18.4438 90.5437 12.7344 75 12.7344C40.4813 12.7344 12.5 40.7156 12.5 75.2344C12.5 109.753 40.4813 137.734 75 137.734C109.519 137.734 137.5 109.753 137.5 75.2344C137.5 74.85 137.45 74.4781 137.444 74.0938Z" fill="#797A9E"/>
<path d="M123.078 101.978C113.319 115.422 96.0438 116.144 79.7844 115.859H58.5938H52.5375C66.375 110.881 74.6094 109.697 83.0187 105.234C98.8562 96.9062 114.513 78.6844 117.772 59.7281C111.741 77.9656 93.4625 93.6344 76.8062 100.006C65.3937 104.359 44.7813 108.584 44.7813 108.584L43.9469 108.131C29.9156 101.072 29.4906 69.6531 55 59.5094C66.1688 55.0625 76.8531 57.5063 88.9188 54.5312C101.8 51.3687 116.7 41.3812 122.763 28.3594C129.55 49.1937 137.719 81.8156 123.078 101.978ZM48.9625 120.375C48.0813 121.469 46.7344 122.109 45.3281 122.109C42.7563 122.109 40.6563 119.994 40.6563 117.422C40.6563 114.85 42.7719 112.734 45.3281 112.734C46.3938 112.734 47.4438 113.103 48.2688 113.784C50.2688 115.406 50.5813 118.375 48.9625 120.375Z" fill="#EFE9F4"/>
</svg>
